<svg width="67" height="33" viewBox="0 0 67 33" fill="none" xmlns="http://www.w3.org/2000/svg"><g clip-path="url(#clip0_1588_33746)"><path d="M42.1692 21.3179C42.1692 13.7463 37.9404 9.23096 31.4406 9.23096C24.9407 9.23096 20.668 13.5259 20.668 21.0957C20.668 28.6656 24.8968 32.7838 31.4406 32.7838C36.6053 32.7838 40.477 29.8167 41.5465 25.7003H37.5393C36.6492 27.6037 34.8233 29.2867 31.4406 29.2867C27.0781 29.2867 24.8528 26.5418 24.406 22.602H42.1692V21.3179ZM24.4517 19.1923C24.9865 15.3856 27.3015 12.6844 31.4406 12.6844C35.5797 12.6844 37.7627 15.34 38.2957 19.1923H24.4499H24.4517Z" fill="#F5F5F5"></path><path d="M55.4931 9.23096C48.9493 9.23096 44.7205 13.5259 44.7205 21.0957C44.7205 28.6656 48.9493 32.7838 55.4931 32.7838C62.0368 32.7838 66.2217 28.7985 66.2217 21.0957C66.2217 13.3929 61.9929 9.23096 55.4931 9.23096ZM55.4931 29.3759C50.8192 29.3759 48.2808 25.7458 48.2808 21.052C48.2808 16.3582 50.8174 12.5951 55.4931 12.5951C60.1688 12.5951 62.6595 16.2708 62.6595 21.052C62.6595 25.8332 60.2109 29.3759 55.4931 29.3759Z" fill="#F5F5F5"></path><path d="M15.2633 0H11.4191L5.03284 18.6368H8.92284L15.2633 0Z" fill="#F5F5F5"></path><path d="M1.17762 18.6368L0 22.0684H3.85521L5.03283 18.635H1.17762V18.6368Z" fill="#C4FFC2"></path><path d="M5.54382 28.4452L7.71776 22.0684H3.85522L0.492676 31.8767H4.14459H4.37352H19.1332V28.4452H5.54382Z" fill="#F5F5F5"></path></g><defs><clipPath id="clip0_1588_33746"><rect width="66.2216" height="32.7857" fill="white"></rect></clipPath></defs></svg>