<svg width="49" height="48" viewBox="0 0 49 48" fill="none" xmlns="http://www.w3.org/2000/svg">
<rect x="1.01025" width="47.9894" height="47.4842" rx="5.05151" fill="#FF5CD9"/>
<path d="M22.2947 39.7112V25.0159H28.0924C29.207 25.0159 30.1566 25.2287 30.9411 25.6545C31.7256 26.0754 32.3236 26.6614 32.735 27.4125C33.1511 28.1587 33.3592 29.0198 33.3592 29.9956C33.3592 30.9715 33.1487 31.8325 32.7278 32.5788C32.3068 33.325 31.6969 33.9062 30.898 34.3224C30.104 34.7386 29.1425 34.9467 28.0135 34.9467H24.3182V32.4568H27.5112C28.1092 32.4568 28.6019 32.354 28.9894 32.1483C29.3816 31.9378 29.6734 31.6484 29.8648 31.28C30.0609 30.9069 30.159 30.4788 30.159 29.9956C30.159 29.5077 30.0609 29.082 29.8648 28.7184C29.6734 28.3501 29.3816 28.0654 28.9894 27.8645C28.5971 27.6588 28.0996 27.556 27.4969 27.556H25.4017V39.7112H22.2947ZM34.7711 39.7112V25.0159H37.8781V37.1495H44.1781V39.7112H34.7711Z" fill="white" fill-opacity="0.84"/>
</svg>
